<?xml version="1.0" encoding="UTF-8"?>
<svg width="338px" height="72px" viewBox="0 0 338 72" version="1.1" xmlns="http://www.w3.org/2000/svg" xmlns:xlink="http://www.w3.org/1999/xlink">
    <!-- Generator: Sketch 55.2 (78181) - https://sketchapp.com -->
    <title>Logo</title>
    <desc>Created with Sketch.</desc>
    <defs>
        <style type="text/css">
   <![CDATA[
    @font-face {
        font-family: Delicious;
        src: url('http://fonts.googleapis.com/css?family=Amatic+SC:400,700&display=swap&subset=cyrillic,hebrew,latin-ext,vietnamese');
    }
   ]]>
 </style>
    </defs>
    <g id="Page-1" stroke="none" stroke-width="1" fill="none" fill-rule="evenodd">
        <g id="Group-19-Copy" transform="translate(-692.000000, -1413.000000)">
            <g id="Logo" transform="translate(693.000000, 1390.000000)">
                <text id="REAMCRAFT" font-family="Amatic SC" font-size="72" font-weight="normal" fill="#000000">
                    <tspan x="105" y="86">REAMCRAFT</tspan>
                </text>
                <g id="catcher-copy-6" transform="translate(52.500000, 59.000000) rotate(90.000000) translate(-52.500000, -59.000000) translate(17.000000, 6.500000)" stroke="#000000" stroke-linecap="round" stroke-width="2">
                    <path d="M61.5,36 L61.5,93 L61.5,36 Z" id="Path" stroke-linejoin="round"></path>
                    <path d="M61.5,64 L52.5,75.1413043 C52.5,98.9551739 61.5,105 61.5,105 C61.5,105 70.5,98.9551739 70.5,75.1413043 L61.5,64 L61.5,64 Z" id="Path" stroke-linejoin="round"></path>
                    <path d="M61.5,83 L57.5,86 L61.5,83 Z" id="Path" stroke-linejoin="round"></path>
                    <path d="M61.5,83 L65.5,86 L61.5,83 Z" id="Path" stroke-linejoin="round"></path>
                    <path d="M9.5,64 L0.5,75.1413043 C0.5,98.9551739 9.5,105 9.5,105 C9.5,105 18.5,98.9551739 18.5,75.1413043 L9.5,64 L9.5,64 Z" id="Path" stroke-linejoin="round"></path>
                    <path d="M9.5,82 L5.5,85 L9.5,82 Z" id="Path" stroke-linejoin="round"></path>
                    <path d="M9.5,82 L13.5,85 L9.5,82 Z" id="Path" stroke-linejoin="round"></path>
                    <path d="M30.7952496,55.7876131 C27.5467125,59.9076901 25.5683338,65.1604716 26.0803218,70.4114437 C27.7946788,87.9647449 34.753791,97.1620885 34.9928376,97.4932146 C34.9999733,97.5022618 34.9999733,97.5022618 35.0071091,97.4932146 C35.2461557,97.1620885 42.2052678,87.9647449 43.9196249,70.4114437 C44.4316129,65.1604716 42.4550181,59.9076901 39.2046971,55.7876131 L35.0534912,50.5257844 C35.0267323,50.4914052 34.9732144,50.4914052 34.9464554,50.5257844 L30.7952496,55.7876131 Z" id="Path" stroke-linejoin="round"></path>
                    <path d="M34.5,64 L30.5,68 L34.5,64 Z" id="Path" stroke-linejoin="round"></path>
                    <path d="M34.5,64 L38.5,68 L34.5,64 Z" id="Path" stroke-linejoin="round"></path>
                    <path d="M34.5,72 L30.5,76 L34.5,72 Z" id="Path" stroke-linejoin="round"></path>
                    <path d="M34.5,72 L38.5,76 L34.5,72 Z" id="Path" stroke-linejoin="round"></path>
                    <path d="M34.5,79 L34.5,38 L34.5,79 Z" id="Path" stroke-linejoin="round"></path>
                    <path d="M10.5447068,12.1166044 C12.4509911,10.2153294 29.5,0.00018254432 35.9831016,0.00133891641 C42.4662033,0.00249528849 59.8316612,10.3293935 61.1557883,12.3046921 C62.4799154,14.2799907 63.3626669,34.8107081 61.1557883,36.7233108 C58.9489098,38.6359135 13.0458358,38.2597381 10.5447068,36.5352231 C8.04357774,34.8107081 7.60220203,15.0513769 10.5447068,12.1166044 Z" id="Path" stroke-linejoin="round"></path>
                    <path d="M-24.25,60.25 C4.75,59.5833333 21.9166667,59.25 27.25,59.25 C32.5833333,59.25 37.5833333,59.25 42.25,59.25" id="Line" transform="translate(9.000000, 59.750000) rotate(90.000000) translate(-9.000000, -59.750000) "></path>
                </g>
            </g>
        </g>
    </g>
</svg>
